<svg width="20" height="20" viewBox="0 0 20 20" fill="none" xmlns="http://www.w3.org/2000/svg">
<path d="M12.5 0.625C12.5 1.79036 12.7148 2.86458 13.1445 3.84766C13.5742 4.83073 14.1927 5.73568 15 6.5625C15.8073 7.38932 16.4258 8.29427 16.8555 9.27734C17.2852 10.2604 17.5 11.3346 17.5 12.5C17.5 13.1901 17.4121 13.8542 17.2363 14.4922C17.0605 15.1302 16.8066 15.7259 16.4746 16.2793C16.1426 16.8327 15.752 17.3405 15.3027 17.8027C14.8535 18.265 14.349 18.6556 13.7891 18.9746C13.2292 19.2936 12.6302 19.5443 11.9922 19.7266C11.3542 19.9089 10.6901 20 10 20C9.3099 20 8.64583 19.9121 8.00781 19.7363C7.36979 19.5605 6.77409 19.3066 6.2207 18.9746C5.66732 18.6426 5.15951 18.252 4.69727 17.8027C4.23503 17.3535 3.8444 16.849 3.52539 16.2891C3.20638 15.7292 2.95573 15.1302 2.77344 14.4922C2.59115 13.8542 2.5 13.1901 2.5 12.5C2.5 11.9531 2.55859 11.416 2.67578 10.8887C2.79297 10.3613 2.96224 9.85677 3.18359 9.375C3.40495 8.89323 3.67839 8.43425 4.00391 7.99805C4.32943 7.56185 4.69727 7.16797 5.10742 6.81641C5.15299 7.0638 5.21484 7.31771 5.29297 7.57812C5.37109 7.83854 5.46224 8.09896 5.56641 8.35938C5.67057 8.61979 5.79427 8.86719 5.9375 9.10156C6.08073 9.33594 6.23047 9.55404 6.38672 9.75586C6.51693 9.91862 6.6862 10 6.89453 10C7.07031 10 7.2168 9.93815 7.33398 9.81445C7.45117 9.69075 7.51302 9.54102 7.51953 9.36523C7.51953 9.29362 7.50977 9.22852 7.49023 9.16992C7.4707 9.11133 7.43815 9.05273 7.39258 8.99414C7.21029 8.72721 7.05078 8.46354 6.91406 8.20312C6.77734 7.94271 6.6569 7.67578 6.55273 7.40234C6.44857 7.12891 6.3737 6.8457 6.32812 6.55273C6.28255 6.25977 6.25651 5.95052 6.25 5.625C6.25 4.85026 6.39648 4.12109 6.68945 3.4375C6.98242 2.75391 7.38607 2.1582 7.90039 1.65039C8.41471 1.14258 9.01042 0.742188 9.6875 0.449219C10.3646 0.15625 11.0938 0.00651042 11.875 0H12.5V0.625ZM10 18.75C10.8659 18.75 11.6764 18.5872 12.4316 18.2617C13.1868 17.9362 13.8509 17.4902 14.4238 16.9238C14.9967 16.3574 15.4427 15.6966 15.7617 14.9414C16.0807 14.1862 16.2435 13.3724 16.25 12.5C16.25 11.5169 16.0677 10.6022 15.7031 9.75586C15.3385 8.9095 14.8112 8.14128 14.1211 7.45117C13.2747 6.59831 12.6107 5.65755 12.1289 4.62891C11.6471 3.60026 11.3607 2.48698 11.2695 1.28906C10.7292 1.36068 10.2311 1.52344 9.77539 1.77734C9.31966 2.03125 8.91927 2.35352 8.57422 2.74414C8.22917 3.13477 7.96549 3.57422 7.7832 4.0625C7.60091 4.55078 7.50651 5.07161 7.5 5.625C7.5 6.13281 7.57487 6.5918 7.72461 7.00195C7.87435 7.41211 8.0957 7.82227 8.38867 8.23242C8.51237 8.40169 8.60677 8.57747 8.67188 8.75977C8.73698 8.94206 8.77279 9.14388 8.7793 9.36523C8.7793 9.62565 8.73047 9.86979 8.63281 10.0977C8.53516 10.3255 8.39844 10.5241 8.22266 10.6934C8.04688 10.8626 7.84831 10.9993 7.62695 11.1035C7.4056 11.2077 7.16146 11.2565 6.89453 11.25C6.59505 11.25 6.33138 11.1947 6.10352 11.084C5.87565 10.9733 5.67383 10.8236 5.49805 10.6348C5.32227 10.446 5.16602 10.2344 5.0293 10C4.89258 9.76562 4.76237 9.53125 4.63867 9.29688C4.33919 9.77214 4.11784 10.2832 3.97461 10.8301C3.83138 11.377 3.75651 11.9336 3.75 12.5C3.75 13.3659 3.91276 14.1764 4.23828 14.9316C4.5638 15.6868 5.00977 16.3509 5.57617 16.9238C6.14258 17.4967 6.80339 17.9427 7.55859 18.2617C8.3138 18.5807 9.1276 18.7435 10 18.75Z" fill="black"/>
</svg>
